<svg xmlns="http://www.w3.org/2000/svg" xmlns:xlink="http://www.w3.org/1999/xlink" width="340" zoomAndPan="magnify" viewBox="0 0 255 70.499999" height="94" preserveAspectRatio="xMidYMid meet" version="1.0"><defs><g/><clipPath id="b5cbf4542a"><path d="M 239.933594 45.097656 L 252 45.097656 L 252 57 L 239.933594 57 Z M 239.933594 45.097656 " clip-rule="nonzero"/></clipPath><clipPath id="b247e039bb"><path d="M 239.933594 50.992188 C 239.933594 54.25 242.574219 56.890625 245.828125 56.890625 C 249.085938 56.890625 251.726562 54.25 251.726562 50.992188 C 251.726562 47.738281 249.085938 45.097656 245.828125 45.097656 C 242.574219 45.097656 239.933594 47.738281 239.933594 50.992188 Z M 239.933594 50.992188 " clip-rule="nonzero"/></clipPath><clipPath id="eaddaca683"><path d="M 1.03125 16.273438 L 35.585938 16.273438 L 35.585938 56.441406 L 1.03125 56.441406 Z M 1.03125 16.273438 " clip-rule="nonzero"/></clipPath><linearGradient x1="319.540166" gradientTransform="matrix(1, 0, 0, 1, -0.0000230947, -0.0000600438)" y1="459.114051" x2="631.882702" gradientUnits="userSpaceOnUse" y2="278.782922" id="8d9d71c03f"><stop stop-opacity="1" stop-color="rgb(35.299683%, 36.099243%, 75.698853%)" offset="0"/><stop stop-opacity="1" stop-color="rgb(35.299683%, 36.099243%, 75.578308%)" offset="0.015625"/><stop stop-opacity="1" stop-color="rgb(35.235596%, 36.035156%, 75.378418%)" offset="0.0234375"/><stop stop-opacity="1" stop-color="rgb(35.035706%, 35.835266%, 75.289917%)" offset="0.03125"/><stop stop-opacity="1" stop-color="rgb(34.899902%, 35.699463%, 75.090027%)" offset="0.046875"/><stop stop-opacity="1" stop-color="rgb(34.899902%, 35.699463%, 74.807739%)" offset="0.0546875"/><stop stop-opacity="1" stop-color="rgb(34.864807%, 35.664368%, 74.607849%)" offset="0.0625"/><stop stop-opacity="1" stop-color="rgb(34.663391%, 35.464478%, 74.375916%)" offset="0.078125"/><stop stop-opacity="1" stop-color="rgb(34.498596%, 35.299683%, 74.165344%)" offset="0.09375"/><stop stop-opacity="1" stop-color="rgb(34.399414%, 35.198975%, 73.887634%)" offset="0.109375"/><stop stop-opacity="1" stop-color="rgb(34.199524%, 34.999084%, 73.510742%)" offset="0.125"/><stop stop-opacity="1" stop-color="rgb(34.098816%, 34.899902%, 73.234558%)" offset="0.140625"/><stop stop-opacity="1" stop-color="rgb(34.07135%, 34.872437%, 73.022461%)" offset="0.148438"/><stop stop-opacity="1" stop-color="rgb(33.87146%, 34.671021%, 72.883606%)" offset="0.15625"/><stop stop-opacity="1" stop-color="rgb(33.699036%, 34.498596%, 72.683716%)" offset="0.171875"/><stop stop-opacity="1" stop-color="rgb(33.699036%, 34.498596%, 72.355652%)" offset="0.1875"/><stop stop-opacity="1" stop-color="rgb(33.563232%, 34.362793%, 72.20459%)" offset="0.195312"/><stop stop-opacity="1" stop-color="rgb(33.363342%, 34.162903%, 72.119141%)" offset="0.203125"/><stop stop-opacity="1" stop-color="rgb(33.299255%, 34.098816%, 71.91925%)" offset="0.21875"/><stop stop-opacity="1" stop-color="rgb(33.299255%, 34.042358%, 71.742249%)" offset="0.234375"/><stop stop-opacity="1" stop-color="rgb(33.299255%, 33.842468%, 71.542358%)" offset="0.242187"/><stop stop-opacity="1" stop-color="rgb(33.154297%, 33.699036%, 71.253967%)" offset="0.25"/><stop stop-opacity="1" stop-color="rgb(32.954407%, 33.699036%, 71.011353%)" offset="0.265625"/><stop stop-opacity="1" stop-color="rgb(32.899475%, 33.528137%, 70.755005%)" offset="0.28125"/><stop stop-opacity="1" stop-color="rgb(32.783508%, 33.328247%, 70.483398%)" offset="0.289063"/><stop stop-opacity="1" stop-color="rgb(32.583618%, 33.299255%, 70.283508%)" offset="0.296875"/><stop stop-opacity="1" stop-color="rgb(32.499695%, 33.299255%, 70.051575%)" offset="0.3125"/><stop stop-opacity="1" stop-color="rgb(32.499695%, 33.207703%, 69.851685%)" offset="0.320313"/><stop stop-opacity="1" stop-color="rgb(32.472229%, 33.007812%, 69.763184%)" offset="0.328125"/><stop stop-opacity="1" stop-color="rgb(32.322693%, 32.899475%, 69.563293%)" offset="0.33186"/><stop stop-opacity="1" stop-color="rgb(32.199097%, 32.899475%, 69.398499%)" offset="0.34375"/><stop stop-opacity="1" stop-color="rgb(32.199097%, 32.899475%, 69.329834%)" offset="0.351562"/><stop stop-opacity="1" stop-color="rgb(32.199097%, 32.887268%, 69.129944%)" offset="0.359375"/><stop stop-opacity="1" stop-color="rgb(32.098389%, 32.687378%, 68.89801%)" offset="0.375"/><stop stop-opacity="1" stop-color="rgb(31.898499%, 32.499695%, 68.658447%)" offset="0.390625"/><stop stop-opacity="1" stop-color="rgb(31.799316%, 32.403564%, 68.359375%)" offset="0.40625"/><stop stop-opacity="1" stop-color="rgb(31.7276%, 32.254028%, 68.127441%)" offset="0.414062"/><stop stop-opacity="1" stop-color="rgb(31.52771%, 32.199097%, 67.927551%)" offset="0.421875"/><stop stop-opacity="1" stop-color="rgb(31.399536%, 32.199097%, 67.721558%)" offset="0.4375"/><stop stop-opacity="1" stop-color="rgb(31.399536%, 32.006836%, 67.570496%)" offset="0.453125"/><stop stop-opacity="1" stop-color="rgb(31.262207%, 31.806946%, 67.362976%)" offset="0.460938"/><stop stop-opacity="1" stop-color="rgb(31.062317%, 31.799316%, 67.163086%)" offset="0.46875"/><stop stop-opacity="1" stop-color="rgb(30.999756%, 31.799316%, 67.098999%)" offset="0.484375"/><stop stop-opacity="1" stop-color="rgb(30.999756%, 31.648254%, 66.947937%)" offset="0.492188"/><stop stop-opacity="1" stop-color="rgb(30.891418%, 31.448364%, 66.641235%)" offset="0.5"/><stop stop-opacity="1" stop-color="rgb(30.691528%, 31.399536%, 66.392517%)" offset="0.515625"/><stop stop-opacity="1" stop-color="rgb(30.599976%, 31.259155%, 66.159058%)" offset="0.523438"/><stop stop-opacity="1" stop-color="rgb(30.599976%, 31.059265%, 65.959167%)" offset="0.53125"/><stop stop-opacity="1" stop-color="rgb(30.427551%, 30.999756%, 65.727234%)" offset="0.546875"/><stop stop-opacity="1" stop-color="rgb(30.226135%, 30.938721%, 65.466309%)" offset="0.5625"/><stop stop-opacity="1" stop-color="rgb(30.198669%, 30.738831%, 65.238953%)" offset="0.578125"/><stop stop-opacity="1" stop-color="rgb(30.105591%, 30.599976%, 65.005493%)" offset="0.585937"/><stop stop-opacity="1" stop-color="rgb(29.905701%, 30.599976%, 64.805603%)" offset="0.59375"/><stop stop-opacity="1" stop-color="rgb(29.798889%, 30.432129%, 64.532471%)" offset="0.609375"/><stop stop-opacity="1" stop-color="rgb(29.734802%, 30.232239%, 64.268494%)" offset="0.625"/><stop stop-opacity="1" stop-color="rgb(29.534912%, 30.198669%, 64.035034%)" offset="0.640625"/><stop stop-opacity="1" stop-color="rgb(29.399109%, 30.102539%, 63.803101%)" offset="0.648437"/><stop stop-opacity="1" stop-color="rgb(29.399109%, 29.902649%, 63.60321%)" offset="0.65625"/><stop stop-opacity="1" stop-color="rgb(29.270935%, 29.798889%, 63.371277%)" offset="0.66814"/><stop stop-opacity="1" stop-color="rgb(29.142761%, 29.798889%, 63.243103%)" offset="0.671875"/><stop stop-opacity="1" stop-color="rgb(29.071045%, 29.782104%, 63.154602%)" offset="0.6875"/><stop stop-opacity="1" stop-color="rgb(28.999329%, 29.582214%, 62.882996%)" offset="0.703125"/><stop stop-opacity="1" stop-color="rgb(28.805542%, 29.399109%, 62.554932%)" offset="0.71875"/><stop stop-opacity="1" stop-color="rgb(28.605652%, 29.399109%, 62.40387%)" offset="0.734375"/><stop stop-opacity="1" stop-color="rgb(28.599548%, 29.322815%, 62.322998%)" offset="0.742188"/><stop stop-opacity="1" stop-color="rgb(28.599548%, 29.122925%, 62.103271%)" offset="0.75"/><stop stop-opacity="1" stop-color="rgb(28.491211%, 28.999329%, 61.779785%)" offset="0.765625"/><stop stop-opacity="1" stop-color="rgb(28.291321%, 28.947449%, 61.546326%)" offset="0.773438"/><stop stop-opacity="1" stop-color="rgb(28.199768%, 28.75061%, 61.349487%)" offset="0.78125"/><stop stop-opacity="1" stop-color="rgb(28.199768%, 28.6026%, 61.117554%)" offset="0.796875"/><stop stop-opacity="1" stop-color="rgb(28.025818%, 28.599548%, 60.914612%)" offset="0.8125"/><stop stop-opacity="1" stop-color="rgb(27.825928%, 28.482056%, 60.681152%)" offset="0.820313"/><stop stop-opacity="1" stop-color="rgb(27.799988%, 28.282166%, 60.481262%)" offset="0.828125"/><stop stop-opacity="1" stop-color="rgb(27.799988%, 28.199768%, 60.343933%)" offset="0.835938"/><stop stop-opacity="1" stop-color="rgb(27.799988%, 28.199768%, 60.144043%)" offset="0.84375"/><stop stop-opacity="1" stop-color="rgb(27.648926%, 28.111267%, 59.912109%)" offset="0.859375"/><stop stop-opacity="1" stop-color="rgb(27.49939%, 27.911377%, 59.710693%)" offset="0.875"/><stop stop-opacity="1" stop-color="rgb(27.49939%, 27.799988%, 59.47876%)" offset="0.882812"/><stop stop-opacity="1" stop-color="rgb(27.433777%, 27.799988%, 59.27887%)" offset="0.890625"/><stop stop-opacity="1" stop-color="rgb(27.233887%, 27.684021%, 59.046936%)" offset="0.90625"/><stop stop-opacity="1" stop-color="rgb(27.099609%, 27.534485%, 58.805847%)" offset="0.921875"/><stop stop-opacity="1" stop-color="rgb(26.96991%, 27.49939%, 58.558655%)" offset="0.9375"/><stop stop-opacity="1" stop-color="rgb(26.77002%, 27.401733%, 58.300781%)" offset="0.945312"/><stop stop-opacity="1" stop-color="rgb(26.699829%, 27.201843%, 58.100891%)" offset="0.953125"/><stop stop-opacity="1" stop-color="rgb(26.699829%, 27.099609%, 57.843018%)" offset="0.96875"/><stop stop-opacity="1" stop-color="rgb(26.577759%, 27.099609%, 57.643127%)" offset="0.984375"/><stop stop-opacity="1" stop-color="rgb(26.376343%, 26.966858%, 57.499695%)" offset="1"/></linearGradient><clipPath id="5e66fce490"><path d="M 16.640625 32.371094 L 35.589844 32.371094 L 35.589844 40.609375 L 16.640625 40.609375 Z M 16.640625 32.371094 " clip-rule="nonzero"/></clipPath></defs><g clip-path="url(#b5cbf4542a)"><g clip-path="url(#b247e039bb)"><path fill="#000000" d="M 256.453125 61.558594 L 256.453125 48.722656 L 252.492188 44.757812 L 252.492188 44.734375 L 252.464844 44.734375 L 252.40625 44.675781 L 252.40625 44.734375 L 239.570312 44.734375 L 239.570312 57.570312 L 239.511719 57.570312 L 239.570312 57.632812 L 239.570312 57.65625 L 239.597656 57.65625 L 243.558594 61.617188 L 256.394531 61.617188 L 256.453125 61.679688 L 256.453125 61.617188 L 256.511719 61.617188 Z M 243.59375 61.535156 L 239.714844 57.65625 L 252.429688 57.65625 L 256.308594 61.535156 Z M 256.367188 61.472656 L 252.492188 57.59375 L 252.492188 44.878906 L 256.367188 48.757812 Z M 256.367188 61.472656 " fill-opacity="1" fill-rule="nonzero"/></g></g><g clip-path="url(#eaddaca683)"><path stroke-linecap="butt" transform="matrix(0, 0.144348, -0.144348, 0, 46.860561, -18.047832)" fill="none" stroke-linejoin="miter" d="M 132.200926 234.981217 C 173.983525 336.893955 265.15294 391.314167 377.809002 391.314167 M 377.809002 391.314167 C 490.438004 391.314167 581.607419 336.893955 623.417079 234.981217 M 377.809002 284.773951 C 437.019059 284.773951 485.052811 236.740199 485.052811 177.503081 C 485.052811 177.503081 487.623632 142.052819 458.045665 109.525174 M 377.809002 171.360173 L 377.809002 33.483008 M 297.57234 109.525174 C 267.994373 142.052819 270.538132 177.503081 270.538132 177.503081 C 270.538132 236.740199 318.571885 284.773951 377.809002 284.773951 M 725.16745 602.094391 C 651.966718 635.1362 610.238241 614.86731 539.229472 604.20517 C 451.11798 590.972209 378.783208 625.421205 378.783208 716.915355 M 378.810269 716.915355 C 378.810269 625.421205 306.475497 590.972209 218.364006 604.20517 C 147.355236 614.86731 105.62676 635.1362 32.426027 602.094391 M 47.174419 393.262579 C 122.242379 510.573179 283.744032 436.046445 379.107943 528.866597 C 473.037608 432.907338 631.779011 507.136398 715.479516 397.375891 " stroke="url(#8d9d71c03f)" stroke-width="52" stroke-miterlimit="10"/></g><g clip-path="url(#5e66fce490)"><path fill="#48499c" d="M 35.597656 32.371094 L 35.597656 40.609375 L 16.640625 40.609375 L 16.640625 32.371094 Z M 35.597656 32.371094 " fill-opacity="1" fill-rule="nonzero"/></g><g fill="#000000" fill-opacity="1"><g transform="translate(35.772704, 55.403346)"><g><path d="M 19.640625 0.984375 C 16.535156 0.984375 13.875 0.582031 11.65625 -0.21875 C 9.445312 -1.019531 7.640625 -2.085938 6.234375 -3.421875 C 4.835938 -4.765625 3.804688 -6.257812 3.140625 -7.90625 C 2.484375 -9.550781 2.15625 -11.21875 2.15625 -12.90625 L 10.015625 -12.90625 C 10.015625 -11.570312 10.390625 -10.359375 11.140625 -9.265625 C 11.890625 -8.171875 12.976562 -7.296875 14.40625 -6.640625 C 15.84375 -5.984375 17.578125 -5.65625 19.609375 -5.65625 C 25.992188 -5.65625 29.1875 -7.796875 29.1875 -12.078125 C 29.1875 -13.398438 28.773438 -14.476562 27.953125 -15.3125 C 27.128906 -16.144531 25.976562 -16.816406 24.5 -17.328125 C 23.03125 -17.847656 21.289062 -18.300781 19.28125 -18.6875 C 17.851562 -18.976562 16.382812 -19.332031 14.875 -19.75 C 13.363281 -20.175781 11.914062 -20.707031 10.53125 -21.34375 C 9.15625 -21.976562 7.921875 -22.757812 6.828125 -23.6875 C 5.734375 -24.613281 4.863281 -25.726562 4.21875 -27.03125 C 3.570312 -28.332031 3.25 -29.878906 3.25 -31.671875 C 3.25 -34.015625 3.8125 -36.113281 4.9375 -37.96875 C 6.070312 -39.820312 7.828125 -41.289062 10.203125 -42.375 C 12.585938 -43.46875 15.632812 -44.015625 19.34375 -44.015625 C 22.925781 -44.015625 25.914062 -43.472656 28.3125 -42.390625 C 30.707031 -41.316406 32.507812 -39.8125 33.71875 -37.875 C 34.925781 -35.9375 35.53125 -33.679688 35.53125 -31.109375 L 27.671875 -31.109375 C 27.671875 -32.222656 27.375 -33.234375 26.78125 -34.140625 C 26.1875 -35.046875 25.269531 -35.769531 24.03125 -36.3125 C 22.800781 -36.851562 21.207031 -37.125 19.25 -37.125 C 17.625 -37.125 16.285156 -36.96875 15.234375 -36.65625 C 14.179688 -36.351562 13.351562 -35.9375 12.75 -35.40625 C 12.15625 -34.882812 11.734375 -34.296875 11.484375 -33.640625 C 11.242188 -32.984375 11.125 -32.316406 11.125 -31.640625 C 11.125 -29.847656 12.019531 -28.476562 13.8125 -27.53125 C 15.601562 -26.582031 18.300781 -25.816406 21.90625 -25.234375 C 23.882812 -24.867188 25.785156 -24.375 27.609375 -23.75 C 29.441406 -23.132812 31.070312 -22.328125 32.5 -21.328125 C 33.9375 -20.328125 35.070312 -19.066406 35.90625 -17.546875 C 36.738281 -16.023438 37.15625 -14.191406 37.15625 -12.046875 C 37.15625 -9.265625 36.429688 -6.90625 34.984375 -4.96875 C 33.535156 -3.03125 31.5 -1.550781 28.875 -0.53125 C 26.25 0.476562 23.171875 0.984375 19.640625 0.984375 Z M 19.640625 0.984375 "/></g></g></g><g fill="#000000" fill-opacity="1"><g transform="translate(72.193556, 55.403346)"><g><path d="M 34.296875 0 L 25.703125 0 L 17.265625 -14.640625 L 12.140625 -9.046875 L 12.140625 0 L 4.484375 0 L 4.484375 -44.515625 L 12.140625 -44.515625 L 12.140625 -17.265625 L 23.578125 -32.5 L 32.90625 -32.5 L 22.828125 -19.640625 Z M 34.296875 0 "/></g></g></g><g fill="#000000" fill-opacity="1"><g transform="translate(104.12491, 55.403346)"><g><path d="M 12.140625 0 L 4.484375 0 L 4.484375 -32.5 L 11.828125 -32.5 L 11.828125 -26.625 C 12.585938 -28.414062 13.703125 -29.84375 15.171875 -30.90625 C 16.648438 -31.96875 18.441406 -32.5 20.546875 -32.5 L 24.03125 -32.5 L 24.03125 -25.921875 L 20.96875 -25.921875 C 19.21875 -25.921875 17.675781 -25.5 16.34375 -24.65625 C 15.019531 -23.8125 13.988281 -22.585938 13.25 -20.984375 C 12.507812 -19.390625 12.140625 -17.429688 12.140625 -15.109375 Z M 12.140625 0 "/></g></g></g><g fill="#000000" fill-opacity="1"><g transform="translate(126.41333, 55.403346)"><g><path d="M 8.25 -37.5625 C 6.769531 -37.5625 5.613281 -37.988281 4.78125 -38.84375 C 3.957031 -39.695312 3.546875 -40.734375 3.546875 -41.953125 C 3.546875 -43.128906 3.957031 -44.148438 4.78125 -45.015625 C 5.613281 -45.878906 6.78125 -46.3125 8.28125 -46.3125 C 9.820312 -46.3125 11.007812 -45.878906 11.84375 -45.015625 C 12.675781 -44.148438 13.09375 -43.128906 13.09375 -41.953125 C 13.09375 -40.734375 12.675781 -39.695312 11.84375 -38.84375 C 11.007812 -37.988281 9.8125 -37.5625 8.25 -37.5625 Z M 12.140625 0 L 4.484375 0 L 4.484375 -32.5 L 12.140625 -32.5 Z M 12.140625 0 "/></g></g></g><g fill="#000000" fill-opacity="1"><g transform="translate(140.291847, 55.403346)"><g><path d="M 12.140625 11.09375 L 4.484375 11.09375 L 4.484375 -32.5 L 11.765625 -32.5 L 11.765625 -27.03125 C 12.941406 -28.988281 14.507812 -30.546875 16.46875 -31.703125 C 18.425781 -32.867188 20.578125 -33.453125 22.921875 -33.453125 C 25.242188 -33.453125 27.367188 -33.003906 29.296875 -32.109375 C 31.222656 -31.210938 32.890625 -29.976562 34.296875 -28.40625 C 35.710938 -26.832031 36.8125 -25.007812 37.59375 -22.9375 C 38.375 -20.863281 38.765625 -18.632812 38.765625 -16.25 C 38.765625 -13.863281 38.375 -11.628906 37.59375 -9.546875 C 36.8125 -7.460938 35.707031 -5.628906 34.28125 -4.046875 C 32.863281 -2.460938 31.203125 -1.226562 29.296875 -0.34375 C 27.390625 0.539062 25.296875 0.984375 23.015625 0.984375 C 21.429688 0.984375 19.929688 0.722656 18.515625 0.203125 C 17.109375 -0.304688 15.847656 -1.03125 14.734375 -1.96875 C 13.617188 -2.914062 12.703125 -4.007812 11.984375 -5.25 L 12.140625 -1.484375 Z M 21.625 -6.078125 C 23.351562 -6.078125 24.9375 -6.484375 26.375 -7.296875 C 27.820312 -8.117188 28.984375 -9.296875 29.859375 -10.828125 C 30.734375 -12.359375 31.171875 -14.164062 31.171875 -16.25 C 31.171875 -18.289062 30.738281 -20.070312 29.875 -21.59375 C 29.007812 -23.113281 27.851562 -24.296875 26.40625 -25.140625 C 24.96875 -25.984375 23.363281 -26.40625 21.59375 -26.40625 C 20.269531 -26.40625 19.03125 -26.144531 17.875 -25.625 C 16.726562 -25.101562 15.71875 -24.378906 14.84375 -23.453125 C 13.96875 -22.523438 13.28125 -21.453125 12.78125 -20.234375 C 12.289062 -19.015625 12.046875 -17.6875 12.046875 -16.25 C 12.046875 -14.769531 12.296875 -13.410156 12.796875 -12.171875 C 13.304688 -10.929688 14.003906 -9.851562 14.890625 -8.9375 C 15.773438 -8.019531 16.796875 -7.3125 17.953125 -6.8125 C 19.117188 -6.320312 20.34375 -6.078125 21.625 -6.078125 Z M 21.625 -6.078125 "/></g></g></g><g fill="#000000" fill-opacity="1"><g transform="translate(178.514821, 55.403346)"><g><path d="M 24.46875 0 L 17.859375 0 C 16.890625 0 15.894531 -0.0859375 14.875 -0.265625 C 13.851562 -0.441406 12.878906 -0.769531 11.953125 -1.25 C 11.023438 -1.738281 10.195312 -2.441406 9.46875 -3.359375 C 8.738281 -4.285156 8.15625 -5.476562 7.71875 -6.9375 C 7.289062 -8.40625 7.078125 -10.210938 7.078125 -12.359375 L 7.078125 -25.921875 L 0.34375 -25.921875 L 0.34375 -32.5 L 7.078125 -32.5 L 7.078125 -42.015625 L 14.734375 -42.078125 L 14.734375 -32.5 L 24.46875 -32.5 L 24.46875 -25.921875 L 14.734375 -25.921875 L 14.734375 -12.015625 C 14.734375 -10.492188 14.953125 -9.320312 15.390625 -8.5 C 15.835938 -7.675781 16.425781 -7.113281 17.15625 -6.8125 C 17.882812 -6.507812 18.644531 -6.359375 19.4375 -6.359375 L 24.46875 -6.359375 Z M 24.46875 0 "/></g></g></g><g fill="#000000" fill-opacity="1"><g transform="translate(201.97304, 55.403346)"><g><path d="M 35.40625 -16.8125 C 35.40625 -16.414062 35.394531 -16.035156 35.375 -15.671875 C 35.351562 -15.316406 35.3125 -14.835938 35.25 -14.234375 L 9.859375 -14.234375 C 10.140625 -12.460938 10.707031 -10.953125 11.5625 -9.703125 C 12.414062 -8.460938 13.472656 -7.507812 14.734375 -6.84375 C 15.992188 -6.175781 17.375 -5.84375 18.875 -5.84375 C 20.8125 -5.84375 22.378906 -6.226562 23.578125 -7 C 24.785156 -7.769531 25.660156 -8.84375 26.203125 -10.21875 L 34.5625 -10.21875 C 34.15625 -8.757812 33.492188 -7.351562 32.578125 -6 C 31.660156 -4.65625 30.535156 -3.460938 29.203125 -2.421875 C 27.878906 -1.378906 26.359375 -0.550781 24.640625 0.0625 C 22.921875 0.675781 21.050781 0.984375 19.03125 0.984375 C 16.582031 0.984375 14.332031 0.535156 12.28125 -0.359375 C 10.226562 -1.253906 8.445312 -2.492188 6.9375 -4.078125 C 5.425781 -5.660156 4.253906 -7.492188 3.421875 -9.578125 C 2.597656 -11.660156 2.1875 -13.882812 2.1875 -16.25 C 2.1875 -18.632812 2.597656 -20.863281 3.421875 -22.9375 C 4.253906 -25.007812 5.425781 -26.835938 6.9375 -28.421875 C 8.445312 -30.003906 10.226562 -31.242188 12.28125 -32.140625 C 14.332031 -33.035156 16.582031 -33.484375 19.03125 -33.484375 C 21.476562 -33.484375 23.707031 -33.039062 25.71875 -32.15625 C 27.726562 -31.269531 29.457031 -30.050781 30.90625 -28.5 C 32.351562 -26.945312 33.460938 -25.171875 34.234375 -23.171875 C 35.015625 -21.171875 35.40625 -19.050781 35.40625 -16.8125 Z M 10.1875 -20.140625 L 27.59375 -20.140625 C 27.488281 -21.359375 27.035156 -22.46875 26.234375 -23.46875 C 25.441406 -24.476562 24.410156 -25.285156 23.140625 -25.890625 C 21.878906 -26.503906 20.5 -26.8125 19 -26.8125 C 17.71875 -26.8125 16.484375 -26.570312 15.296875 -26.09375 C 14.117188 -25.625 13.082031 -24.898438 12.1875 -23.921875 C 11.289062 -22.941406 10.625 -21.679688 10.1875 -20.140625 Z M 10.1875 -20.140625 "/></g></g></g></svg>